<svg width="125" height="125" viewBox="0 0 125 125" fill="none" xmlns="http://www.w3.org/2000/svg">
<circle cx="62.5" cy="62.5" r="61" stroke="#AAB4C1" stroke-width="3"/>
<path d="M94.8833 93.5637V46.0547H81.4833V93.5637H78.1333V55.8001H64.7333V93.5637H61.3833V65.5456H47.9833V93.5637H44.6333V76.5092H31.2333V93.5637H30.1167C29.5003 93.5637 29 94.1082 29 94.7819C29 95.4555 29.5003 96.0001 30.1167 96.0001H31.2333H44.6333H47.9833H61.3833H64.7333H78.1333H81.4833H94.8833C95.4997 96.0001 96 95.4555 96 94.7819C96 94.1082 95.4997 93.5637 94.8833 93.5637ZM33.4667 93.5637V78.9455H42.4V93.5637H33.4667ZM50.2167 93.5637V67.9819H59.15V93.5637H50.2167ZM66.9667 93.5637V58.2365H75.9V93.5637H66.9667ZM83.7167 93.5637V48.491H92.65V93.5637H83.7167Z" fill="#343D66"/>
<path d="M37.967 59.8567C38.1558 59.8567 38.3489 59.8043 38.5243 59.6935L79.0247 34.1848L76.4898 40.2635C76.2341 40.8762 76.482 41.5986 77.0437 41.8764C77.1933 41.9519 77.3508 41.986 77.506 41.986C77.9303 41.986 78.3357 41.7204 78.5233 41.2721L82.5008 31.7338C82.5131 31.7033 82.5109 31.6705 82.5209 31.6388C82.5422 31.5742 82.5589 31.5121 82.5701 31.4439C82.5757 31.4098 82.5935 31.3817 82.5957 31.3464C82.5969 31.3318 82.5913 31.3196 82.5924 31.305C82.5946 31.2587 82.5902 31.2161 82.5879 31.1698C82.5846 31.1028 82.5745 31.0394 82.5611 30.9724C82.5522 30.9261 82.55 30.8786 82.5355 30.8336C82.5221 30.7897 82.4986 30.7532 82.4807 30.7105C82.4662 30.6825 82.4662 30.6496 82.4506 30.6204C82.435 30.5911 82.4082 30.5741 82.3903 30.5461C82.3668 30.5083 82.349 30.4681 82.3211 30.434C82.292 30.3975 82.2552 30.3719 82.2217 30.339C82.1759 30.2939 82.1301 30.2525 82.0787 30.2159C82.0441 30.1916 82.0129 30.1648 81.9749 30.1441C81.9626 30.138 81.9559 30.1258 81.9436 30.1197C81.9157 30.1063 81.8856 30.1087 81.8576 30.0978C81.7962 30.0734 81.7359 30.0564 81.6723 30.0442C81.6432 30.0381 81.6198 30.0198 81.5896 30.0174L72.0287 29.0063C71.409 28.9381 70.8685 29.4327 70.8093 30.1002C70.749 30.7702 71.1991 31.3659 71.8121 31.4305L77.9046 32.0749L37.4076 57.5836C36.8727 57.9198 36.6907 58.6653 36.9989 59.2476C37.2055 59.6386 37.5807 59.8567 37.967 59.8567Z" fill="#343D66"/>
</svg>
