<svg width="125" height="125" viewBox="0 0 125 125" fill="none" xmlns="http://www.w3.org/2000/svg">
<g clip-path="url(#clip0_102_704)">
<path d="M80.3751 71.3246C79.1976 68.9378 74.985 65.6249 70.9151 62.4238C68.6451 60.6398 66.5001 58.953 65.1326 57.6235C64.7901 57.2881 64.2776 57.1811 63.8252 57.3391C62.9827 57.6357 62.4626 57.8641 62.0527 58.0415C61.4277 58.3137 61.2177 58.4061 60.3752 58.4887C60.0026 58.5252 59.6677 58.7197 59.4602 59.021C57.6926 61.5901 55.8626 61.3713 54.6401 60.9728C54.2501 60.8464 54.1802 60.6835 54.1427 60.528C53.8802 59.461 55.1977 56.977 56.9051 55.3169C60.9677 51.3648 63.0626 50.3755 67.4876 52.2981C72.5076 54.4807 77.5376 56.1895 77.5877 56.2064C78.2452 56.4276 78.9527 56.0922 79.1801 55.4578C79.4051 54.8234 79.0626 54.1307 78.4101 53.9096C78.36 53.8926 73.4301 52.2179 68.5101 50.0765C62.7776 47.5852 59.6325 49.2258 55.14 53.596C53.43 55.2585 51.1075 58.6224 51.7075 61.0895C51.965 62.1395 52.725 62.9173 53.855 63.2794C56.6875 64.1884 59.2724 63.3182 61.1975 60.8343C61.9925 60.7152 62.425 60.5402 63.0749 60.2558C63.3099 60.1537 63.5849 60.0347 63.95 59.8912C65.38 61.1964 67.31 62.7155 69.3425 64.3124C73.0175 67.2023 77.185 70.4787 78.1225 72.3746C78.585 73.3103 78.0875 73.9204 77.75 74.1999C77.255 74.6131 76.5775 74.7444 76.21 74.4939C75.805 74.2241 75.2775 74.2072 74.86 74.4502C74.44 74.6932 74.205 75.1526 74.2575 75.6241C74.3425 76.3971 73.615 76.8395 73.3 76.9926C72.5 77.3863 71.665 77.3183 71.3525 77.0363C71.0024 76.7204 70.4999 76.628 70.055 76.7884C69.61 76.9512 69.2999 77.3499 69.2549 77.8116C69.1799 78.6088 68.5724 79.3745 67.7799 79.6734C67.3974 79.8143 66.8424 79.8995 66.3449 79.4571C66.035 79.1849 65.6049 79.0803 65.2025 79.1751C64.795 79.2723 64.4675 79.5591 64.325 79.9407C64.2775 80.0623 64.1699 80.3539 62.9999 80.3539C62.1674 80.3539 60.6699 79.8071 59.9375 79.3355C59.06 78.774 53.5574 74.7831 48.805 70.9136C48.1375 70.3667 46.9825 69.1952 45.9625 68.1598C45.0575 67.241 44.23 66.4074 43.805 66.0574C43.2725 65.6199 42.485 65.6855 42.0425 66.2008C41.5975 66.7136 41.6624 67.4817 42.19 67.9143C42.5775 68.2328 43.3275 69.0032 44.155 69.8417C45.27 70.9743 46.4225 72.1459 47.1975 72.7779C51.8526 76.5672 57.4476 80.6578 58.5625 81.3699C59.4825 81.9581 61.465 82.7844 63 82.7844C64.2325 82.7844 65.1801 82.5098 65.8375 81.9727C66.7175 82.3057 67.7175 82.3081 68.68 81.9435C69.8175 81.5157 70.7525 80.6529 71.2825 79.6078C72.2675 79.812 73.395 79.6685 74.42 79.1679C75.4225 78.677 76.1474 77.9259 76.5074 77.0484C77.5025 77.0994 78.5274 76.7567 79.3749 76.0495C80.8101 74.8561 81.205 72.9993 80.3751 71.3246Z" fill="#343D66"/>
<path d="M58 51.187H46.75C46.06 51.187 45.4999 51.7315 45.4999 52.4023C45.4999 53.0732 46.06 53.6176 46.75 53.6176H58C58.69 53.6176 59.25 53.0732 59.25 52.4023C59.25 51.7315 58.69 51.187 58 51.187Z" fill="#343D66"/>
<path d="M84.0375 68.7378C83.6499 68.1812 82.875 68.0281 82.3025 68.4073L78.6475 70.7941C78.0751 71.1683 77.9225 71.9243 78.3076 72.4808C78.55 72.8284 78.9451 73.018 79.3476 73.018C79.5852 73.018 79.8276 72.9524 80.0427 72.8115L83.6976 70.4247C84.27 70.0503 84.4224 69.2945 84.0375 68.7378Z" fill="#343D66"/>
<path d="M76.2774 74.5376C75.3824 73.8522 71.3799 69.8685 68.9049 67.3602C68.4273 66.874 67.6349 66.8571 67.1373 67.3237C66.6373 67.788 66.6223 68.5584 67.0998 69.0422C67.7424 69.6935 73.4098 75.437 74.7273 76.4481C74.9548 76.6231 75.2298 76.7082 75.4998 76.7082C75.8673 76.7082 76.2348 76.5478 76.4848 76.244C76.9124 75.7188 76.8199 74.9532 76.2774 74.5376Z" fill="#343D66"/>
<path d="M71.2825 76.9753C69.7849 75.811 66.0225 71.9246 65.1724 71.0253C64.7024 70.5294 63.9149 70.5003 63.4049 70.9524C62.8974 71.4068 62.8624 72.1774 63.3299 72.6708C63.3749 72.717 67.8649 77.4299 69.7199 78.8736C69.9499 79.051 70.2274 79.1385 70.4999 79.1385C70.8649 79.1385 71.2298 78.9805 71.4773 78.6841C71.9075 78.1589 71.82 77.3933 71.2825 76.9753Z" fill="#343D66"/>
<path d="M66.3076 79.4228C64.525 77.9621 60.8776 74.1874 60.1651 73.4461C59.6926 72.9551 58.9 72.9284 58.3975 73.3877C57.8926 73.8471 57.8675 74.6151 58.3375 75.1062C59.3626 76.1731 62.8525 79.7704 64.6951 81.2822C64.93 81.4742 65.215 81.569 65.5 81.569C65.855 81.569 66.2101 81.4208 66.4576 81.1364C66.9025 80.6211 66.835 79.8554 66.3076 79.4228Z" fill="#343D66"/>
<path d="M47.61 49.0895C45.4675 47.1158 36.9 46.4765 34.325 46.3283C33.9701 46.3113 33.6425 46.4255 33.3926 46.6564C33.1425 46.8849 33 47.2057 33 47.5411V69.4161C33 70.087 33.56 70.6314 34.25 70.6314H41.75C42.29 70.6314 42.77 70.2936 42.9375 69.7929C43.12 69.2484 47.4275 56.3957 47.995 50.0762C48.0275 49.7067 47.8875 49.3422 47.61 49.0895ZM40.8375 68.2009H35.5V48.8439C39.5175 49.1526 43.8525 49.8234 45.4275 50.5672C44.765 55.8901 41.7675 65.3474 40.8375 68.2009Z" fill="#343D66"/>
<path d="M91.75 48.7563C81.935 48.7563 76.49 51.1991 76.2625 51.3011C75.9376 51.4494 75.695 51.7241 75.595 52.0571C75.4951 52.3901 75.545 52.7474 75.7325 53.0438C77.2775 55.4623 82.115 68.8935 83.045 72.1699C83.195 72.6973 83.6875 73.0619 84.25 73.0619H91.75C92.44 73.0619 93 72.5174 93 71.8465V49.9715C93 49.2983 92.44 48.7563 91.75 48.7563ZM90.5001 70.6313H85.1851C84.0001 66.8785 80.5 57.0931 78.5476 53.0487C80.455 52.4193 84.5526 51.3376 90.5001 51.2016V70.6313Z" fill="#343D66"/>
</g>
<circle cx="62.5" cy="62.5" r="61" stroke="#AAB4C1" stroke-width="3"/>
<defs>
<clipPath id="clip0_102_704">
<rect width="60" height="42" fill="white" transform="translate(33 42)"/>
</clipPath>
</defs>
</svg>
