<svg width="125" height="125" viewBox="0 0 125 125" fill="none" xmlns="http://www.w3.org/2000/svg">
<path d="M62 45C65.864 45 69 41.64 69 37.5C69 33.36 65.864 30 62 30C58.136 30 55 33.36 55 37.5C55 41.61 58.136 45 62 45ZM62 33.06C64.268 33.06 66.144 35.04 66.144 37.5C66.144 39.93 64.296 41.94 62 41.94C59.732 41.94 57.856 39.96 57.856 37.5C57.884 35.04 59.732 33.06 62 33.06Z" fill="#343D66"/>
<path d="M47.0918 73.2036C46.4766 73.3508 46.0079 73.9104 45.9786 74.5584L44.8655 91.7883C44.8362 92.4657 44.2796 92.9664 43.6058 92.9664H35.1105C34.4367 92.9664 33.8801 92.4362 33.8508 91.7883L32.7084 74.5878C32.6791 73.9693 32.2397 73.4392 31.6538 73.2625C31.3315 73.1741 30.3941 72.8796 30.2477 72.7029C30.1305 72.5261 30.0719 71.5542 30.0426 71.0535L29.0173 52.8222C30.482 52.3804 32.8841 51.6147 34.1438 51.2023L38.3329 55.149C38.9187 55.6792 39.7976 55.6792 40.3835 55.149L44.5725 51.2023C44.9826 51.3201 45.4806 51.4969 46.0372 51.6736C46.8282 51.9387 47.6777 51.4969 47.9121 50.7016C48.1757 49.9064 47.7363 49.0523 46.9454 48.8167C45.6857 48.4043 44.6604 48.0803 44.6604 48.0803C44.1331 47.9036 43.5765 48.0509 43.1664 48.4043L39.3582 51.9976L35.5499 48.4043C35.1398 48.0214 34.5832 47.9036 34.0559 48.0803C34.0559 48.0803 30.0426 49.3763 28.0213 49.9948C26.7616 50.3777 26 51.379 26 52.7044C26 52.7928 26 53.0284 26 53.0284L26.996 70.9946C26.996 70.9946 26.996 71.2597 27.0253 71.3186C27.2011 73.9693 27.5819 74.9413 29.779 75.7954L30.8335 91.9944C30.98 94.2328 32.8548 96 35.0812 96H43.5765C45.8029 96 47.6777 94.2328 47.8242 91.9944L48.9081 75.2063C49.0252 74.9118 49.0252 74.5584 48.9374 74.2344C48.7323 73.4392 47.8828 72.9974 47.0918 73.2036Z" fill="#343D66"/>
<path d="M39 46C42.864 46 46 42.64 46 38.5C46 34.36 42.864 31 39 31C35.136 31 32 34.36 32 38.5C32 42.64 35.164 46 39 46ZM39 34.09C41.268 34.09 43.144 36.07 43.144 38.53C43.144 40.99 41.296 42.97 39 42.97C36.732 42.97 34.856 40.99 34.856 38.53C34.856 36.07 36.732 34.09 39 34.09Z" fill="#343D66"/>
<path d="M73.1332 49.9935C71.2397 49.3754 67.4802 48.0803 67.4802 48.0803C66.9863 47.9037 66.4649 48.0509 66.0807 48.4041L62.5133 51.9951L58.9459 48.4041C58.5617 48.0214 58.0404 47.9037 57.5464 48.0803C57.5464 48.0803 53.7869 49.3754 51.8935 49.9935C50.686 50.3762 50 51.377 50 52.7015L50.933 71.0394L50.9605 71.3337C51.1251 73.9828 51.4818 74.9836 53.54 75.8078L54.5278 91.9969C54.6651 94.2339 56.4213 96 58.5069 96H66.4923C68.5779 96 70.3342 94.2339 70.4714 91.9969L71.4593 75.8078C73.5174 74.9542 73.8741 73.9534 74.0388 71.3337L74.9992 52.9664V52.7015C75.0266 51.3475 74.3406 50.3762 73.1332 49.9935ZM71.2672 70.8039L71.2397 71.0982C71.2123 71.5692 71.1574 72.5111 71.0476 72.6877C70.9104 72.8643 70.0049 73.1587 69.703 73.247C69.1542 73.4236 68.7425 73.9534 68.7151 74.601L67.6723 91.7908C67.6449 92.4678 67.1235 92.9682 66.4923 92.9682H58.5069C57.8757 92.9682 57.3818 92.4384 57.3269 91.7908L56.2841 74.601C56.2567 73.9828 55.845 73.453 55.2962 73.247C54.9944 73.1587 54.1162 72.8643 53.979 72.6877C53.8693 72.5111 53.8144 71.5398 53.7869 71.0982L52.8265 52.8781V52.7898C54.1985 52.3483 56.4488 51.583 57.6287 51.1709L61.5529 55.1152C62.1017 55.645 62.9249 55.645 63.4738 55.1152L67.3979 51.2004C68.5779 51.6125 70.8281 52.3778 72.2002 52.8193L71.2672 70.8039Z" fill="#343D66"/>
<path d="M97.0108 49.9935C94.9924 49.3754 90.9847 48.0803 90.9847 48.0803C90.4582 47.9037 89.9024 48.0509 89.4928 48.4041L85.69 51.9951L81.8871 48.4041C81.4776 48.0214 80.9218 47.9037 80.3952 48.0803C80.3952 48.0803 79.3714 48.4041 78.1135 48.8162C77.3237 49.0811 76.8849 49.9052 77.1482 50.7C77.4114 51.4947 78.2305 51.9362 79.0204 51.6713C79.5762 51.4947 80.0735 51.3181 80.483 51.2004L84.6661 55.1446C85.2512 55.6744 86.1288 55.6744 86.7138 55.1446L90.897 51.2004C92.1549 51.6125 94.5243 52.3483 96.0162 52.8193L95.0216 70.8039L94.9924 71.0982C94.9631 71.5692 94.9046 72.5111 94.7876 72.6877C94.6413 72.8643 93.676 73.1587 93.3542 73.247C92.7692 73.4236 92.3304 73.9534 92.3011 74.601L91.1895 91.7908C91.131 92.4678 90.5752 92.9682 89.9316 92.9682H81.4191C80.7755 92.9682 80.2197 92.4384 80.1612 91.7908L79.0204 74.601C78.9911 73.9828 78.4938 73.453 77.9087 73.247C77.1189 72.9821 76.3291 73.4236 76.0658 74.2183C75.9781 74.5127 75.9781 74.8364 76.0658 75.1014L77.1774 91.9969C77.3237 94.2339 79.1666 96 81.4191 96H89.9316C92.1548 96 94.027 94.2339 94.1733 91.9969L95.2264 75.8078C97.4204 74.9542 97.8006 73.9828 97.9762 71.3631C97.9762 71.2454 98.0054 70.9805 98.0054 70.9805L99 52.937V52.6721C99 51.377 98.2687 50.3762 97.0108 49.9935Z" fill="#343D66"/>
<path d="M86 46C89.864 46 93 42.64 93 38.5C93 34.36 89.864 31 86 31C82.136 31 79 34.36 79 38.5C79 42.64 82.136 46 86 46ZM86 34.09C88.268 34.09 90.144 36.07 90.144 38.53C90.144 40.99 88.296 42.97 86 42.97C83.732 42.97 81.856 40.99 81.856 38.53C81.856 36.07 83.704 34.09 86 34.09Z" fill="#343D66"/>
<circle cx="62.5" cy="62.5" r="61" stroke="#AAB4C1" stroke-width="3"/>
</svg>
