<svg width="125" height="125" viewBox="0 0 125 125" fill="none" xmlns="http://www.w3.org/2000/svg">
<path d="M79.7817 77.9224L87.351 70.9756C87.9055 70.466 87.9333 69.6346 87.4065 69.0981C86.8797 68.5617 86.0201 68.5349 85.4656 69.0445L78.8667 75.0793L76.1773 72.3703C75.6505 71.8339 74.791 71.8339 74.2364 72.3435C73.6819 72.8531 73.6819 73.6846 74.2087 74.221L77.8409 77.8687C78.1181 78.1369 78.4786 78.2711 78.839 78.2711C79.1717 78.2711 79.5045 78.1638 79.7817 77.9224Z" fill="#343D66"/>
<path d="M94.4767 70.9484C94.3658 70.3047 94.2549 69.8487 94.1163 69.5269C92.2031 64.0553 86.9629 60.354 80.9462 60.3271H80.5303C74.5969 60.3808 69.3566 64.0821 67.4712 69.5269C67.3326 69.8756 67.2217 70.3315 67.1108 70.9752C66.6949 73.2819 66.9722 75.5885 67.8871 77.627C67.8871 77.6538 67.9149 77.7074 67.9426 77.7342C67.9703 77.7879 67.9703 77.8147 67.998 77.8683C68.7189 79.3703 69.7448 81.1137 70.7429 82.8035C71.3529 83.8227 71.9629 84.8419 72.4897 85.8075C72.8502 86.4512 73.6819 86.6926 74.3474 86.3439C75.0128 85.9952 75.2623 85.1906 74.9019 84.5469C74.3474 83.5545 73.7374 82.5085 73.0997 81.4624C72.157 79.8531 71.1588 78.1902 70.4934 76.7955C70.4657 76.7418 70.438 76.6882 70.4102 76.6077C69.6893 74.9985 69.4953 73.2014 69.8003 71.4312C69.828 71.2435 69.9389 70.707 70.0498 70.3584C71.5747 65.9596 75.7891 63.0093 80.6135 62.9556H81.0017C85.7429 62.9825 89.9573 65.9596 91.51 70.3852C91.6209 70.707 91.7318 71.2435 91.7595 71.4044C92.0922 73.2014 91.8704 74.9716 91.1495 76.6346C91.1218 76.6882 91.0941 76.7418 91.0941 76.7955C90.4287 78.1902 89.4305 79.8531 88.4878 81.4624C87.8501 82.5085 87.2401 83.5545 86.6856 84.5469C86.3252 85.1906 86.5747 85.9952 87.2401 86.3439C87.4342 86.4512 87.656 86.5048 87.8778 86.5048C88.3769 86.5048 88.8483 86.2366 89.0978 85.8075C89.6246 84.8419 90.2346 83.8227 90.8446 82.8035C91.8427 81.1137 92.8686 79.3972 93.5895 77.8683C93.5895 77.8415 93.6172 77.7879 93.6449 77.7611L93.7004 77.6538C94.6431 75.5885 94.8926 73.2551 94.4767 70.9484Z" fill="#343D66"/>
<path d="M85.9372 88.0073H75.6508C75.0962 88.0073 74.5972 88.2487 74.2367 88.651C73.8763 89.0534 73.7377 89.5898 73.8486 90.0994L74.3476 92.6206C74.514 93.4521 75.2626 94.069 76.1498 94.069H76.6212C77.6471 95.2759 79.172 96.0001 80.8079 96.0001C82.4437 96.0001 83.9687 95.2759 84.9946 94.069H85.4659C86.3531 94.069 87.1018 93.4521 87.2681 92.6206L87.7672 90.0994C87.8781 89.5898 87.7395 89.0534 87.379 88.651C86.9908 88.2487 86.4918 88.0073 85.9372 88.0073ZM84.6896 91.4136H84.2737C83.7746 91.4136 83.331 91.655 83.0814 92.0574C82.6101 92.8352 81.7228 93.318 80.7801 93.318C79.8374 93.318 78.9502 92.8352 78.4789 92.0574C78.2293 91.655 77.7857 91.4136 77.2866 91.4136H76.9262L76.7876 90.6626H84.8559L84.6896 91.4136Z" fill="#343D66"/>
<path d="M50.7247 44.771C55.2163 44.771 58.8762 41.2306 58.8762 36.8855C58.8762 32.5404 55.2163 29 50.7247 29C46.233 29 42.5731 32.5404 42.5731 36.8855C42.5731 41.2306 46.233 44.771 50.7247 44.771ZM50.7247 31.6553C53.6914 31.6553 56.1313 34.0156 56.1313 36.8855C56.1313 39.7554 53.6914 42.1157 50.7247 42.1157C47.7579 42.1157 45.318 39.7554 45.318 36.8855C45.318 34.0156 47.7579 31.6553 50.7247 31.6553Z" fill="#343D66"/>
<path d="M60.5674 55.5801C59.8188 55.5264 59.1533 56.0897 59.0979 56.8139L57.8502 74.5696C57.8502 74.6233 57.8225 74.6769 57.8225 74.7037L56.658 91.9767C56.6025 92.7277 55.9371 93.3446 55.1608 93.3446H46.2883C45.4843 93.3446 44.8466 92.7545 44.7911 91.9767L43.6266 74.7037C43.5989 74.1673 43.2107 73.6845 42.6562 73.5236C40.9371 73.014 40.9371 73.014 40.8262 71.2169L39.7726 52.8979V52.7102C41.3253 52.2542 44.0425 51.4227 45.3456 51.0204L49.8096 55.0436C50.3364 55.5264 51.1682 55.5264 51.695 55.0436L56.1866 50.9668L69.3566 53.8367C69.5507 53.8903 69.7448 53.8903 69.9389 53.8367L82.3048 51.3959C83.0535 51.2618 83.5248 50.5376 83.3862 49.8403C83.2475 49.1429 82.4989 48.6601 81.778 48.7943L69.6894 51.1814L56.1035 48.2042C55.6598 48.0969 55.1885 48.231 54.8558 48.526L50.7245 52.2542L46.621 48.526C46.2606 48.2042 45.7338 48.0969 45.2625 48.231C45.2625 48.231 41.0758 49.5184 38.9408 50.1353C37.6932 50.5108 37 51.4227 37 52.6565C37 52.7638 37 52.9784 37 52.9784L38.0536 71.056L38.0813 71.3511C38.2754 74.0868 38.7468 74.9451 40.9371 75.7229L42.0462 92.1108C42.1848 94.2565 44.0425 95.9463 46.2883 95.9463H55.1608C57.3789 95.9463 59.2365 94.2565 59.4029 92.1108L60.5674 74.9719C60.5674 74.9183 60.5674 74.8915 60.5951 74.8378L61.8705 56.948C61.8983 56.2506 61.3437 55.6069 60.5674 55.5801Z" fill="#343D66"/>
<circle cx="62.5" cy="62.5" r="61" stroke="#AAB4C1" stroke-width="3"/>
</svg>
