<svg width="125" height="125" viewBox="0 0 125 125" fill="none" xmlns="http://www.w3.org/2000/svg">
<circle cx="62.5" cy="62.5" r="61" stroke="#AAB4C1" stroke-width="3"/>
<path d="M29.0881 74.8114C29.1266 75.2958 29.4779 75.6977 29.9535 75.8001L33.7906 76.6281C33.9261 77.2821 34.0978 77.9273 34.3059 78.5571L31.4014 81.1886C31.0413 81.5145 30.9378 82.0386 31.147 82.4779C31.6777 83.5944 32.269 84.6261 32.9043 85.5443C33.1796 85.9429 33.6838 86.1147 34.1474 85.966L37.8766 84.7648C38.3225 85.2647 38.7971 85.7392 39.2969 86.1852L38.0957 89.9144C37.9471 90.3757 38.1177 90.8811 38.5174 91.1575C39.4357 91.7928 40.4673 92.384 41.5838 92.9147C42.0242 93.1239 42.5472 93.0193 42.8731 92.6604L45.5046 89.7558C46.1355 89.9628 46.7807 90.1357 47.4347 90.2711L48.2627 94.1082C48.3651 94.5828 48.767 94.934 49.2504 94.9737C49.8361 95.0199 50.423 95.0617 51.0208 95.0617C51.6187 95.0617 52.2056 95.0199 52.7913 94.9737C53.2758 94.9351 53.6776 94.5839 53.78 94.1082L54.608 90.2711C55.262 90.1357 55.9084 89.9639 56.5382 89.7558L59.1696 92.6604C59.4967 93.0204 60.0207 93.125 60.459 92.9147C61.5754 92.384 62.6071 91.7917 63.5254 91.1575C63.925 90.8811 64.0957 90.3757 63.9471 89.9144L62.7458 86.1852C63.2457 85.7392 63.7202 85.2647 64.1662 84.7659L67.8954 85.9671C68.3567 86.1169 68.8621 85.9451 69.1385 85.5454C69.7738 84.6272 70.365 83.5955 70.8957 82.479C71.1049 82.0397 71.0014 81.5156 70.6414 81.1897L67.7368 78.5582C67.9438 77.9273 68.1167 77.2821 68.2521 76.6281L72.0893 75.8001C72.5638 75.6977 72.9151 75.2958 72.9547 74.8125C72.9998 74.2256 73.0417 73.6388 73.0417 73.0409C73.0417 72.443 72.9998 71.8562 72.9536 71.2704C72.915 70.786 72.5638 70.3841 72.0882 70.2817L68.251 69.4537C68.1156 68.7997 67.9438 68.1534 67.7357 67.5236L70.6403 64.8921C71.0003 64.5662 71.1038 64.0421 70.8946 63.6028C70.3639 62.4863 69.7716 61.4546 69.1374 60.5364C68.861 60.1367 68.3556 59.9649 67.8943 60.1147L64.1651 61.3159C63.7191 60.816 63.2446 60.3415 62.7447 59.8956L63.946 56.1663C64.0946 55.705 63.9239 55.1996 63.5243 54.9233C62.606 54.288 61.5743 53.6967 60.4579 53.166C60.0174 52.9557 59.4944 53.0603 59.1685 53.4203L56.5371 56.3249C55.9062 56.1179 55.2609 55.945 54.6069 55.8096L53.7789 51.9725C53.6765 51.4979 53.2747 51.1467 52.7913 51.1071C51.6187 51.0124 50.4219 51.0146 49.2493 51.1071C48.7648 51.1456 48.3629 51.4968 48.2605 51.9725L47.4325 55.8096C46.7785 55.945 46.1333 56.1168 45.5035 56.3249L42.872 53.4203C42.5461 53.0603 42.0231 52.9568 41.5827 53.166C40.4662 53.6967 39.4346 54.288 38.5163 54.9233C38.1166 55.1996 37.946 55.705 38.0946 56.1663L39.2958 59.8956C38.796 60.3415 38.3214 60.816 37.8755 61.3159L34.1474 60.1147C33.6849 59.9649 33.1796 60.1367 32.9043 60.5364C32.269 61.4546 31.6777 62.4863 31.147 63.6028C30.9378 64.0421 31.0413 64.5662 31.4014 64.8921L34.3059 67.5236C34.0989 68.1545 33.9261 68.7997 33.7906 69.4537L29.9535 70.2817C29.479 70.3841 29.1277 70.786 29.0881 71.2693C29.0418 71.8562 29 72.443 29 73.0409C29 73.6388 29.0418 74.2256 29.0881 74.8114ZM31.2252 72.2603L34.9709 71.451C35.4136 71.3552 35.7527 70.9985 35.8254 70.5515C35.9905 69.5363 36.257 68.5399 36.617 67.5886C36.7778 67.1658 36.6621 66.6868 36.3263 66.3829L33.4978 63.8197C33.7444 63.3473 34.002 62.8948 34.2685 62.4665L37.8975 63.6358C38.3269 63.7734 38.8004 63.6358 39.0877 63.2857C39.7374 62.4907 40.4707 61.7585 41.2656 61.1078C41.6157 60.8216 41.7556 60.3492 41.6157 59.9176L40.4464 56.2886C40.8747 56.021 41.3262 55.7634 41.7996 55.5178L44.3628 58.3475C44.6678 58.6833 45.1479 58.7989 45.5696 58.6382C46.5187 58.2781 47.5151 58.0117 48.5314 57.8465C48.9784 57.7739 49.3351 57.4347 49.4309 56.9921L50.2391 53.2464C50.7577 53.2189 51.2851 53.2178 51.8015 53.2464L52.6107 56.9921C52.7065 57.4347 53.0633 57.7739 53.5103 57.8465C54.5254 58.0117 55.5219 58.2781 56.4732 58.6382C56.8938 58.7989 57.3738 58.6844 57.6788 58.3475L60.2421 55.5189C60.7144 55.7656 61.1669 56.0232 61.5952 56.2897L60.4259 59.9187C60.2872 60.3503 60.4259 60.8216 60.7761 61.1089C61.571 61.7585 62.3032 62.4918 62.9539 63.2868C63.2413 63.638 63.7136 63.7778 64.1441 63.6369L67.7732 62.4676C68.0407 62.8959 68.2984 63.3473 68.5439 63.8197L65.7142 66.3829C65.3784 66.6868 65.2628 67.1658 65.4236 67.5897C65.7836 68.5388 66.0501 69.5352 66.2152 70.5515C66.2879 70.9985 66.627 71.3552 67.0696 71.451L70.8154 72.2592C70.8297 72.5179 70.8396 72.7789 70.8396 73.0409C70.8396 73.303 70.8308 73.5639 70.8165 73.8216L67.0707 74.6308C66.6281 74.7266 66.289 75.0833 66.2163 75.5304C66.0512 76.5455 65.7847 77.542 65.4247 78.4933C65.2639 78.9161 65.3795 79.395 65.7153 79.6989L68.5439 82.2621C68.2973 82.7345 68.0396 83.187 67.7732 83.6153L64.1441 82.446C63.7114 82.3051 63.2413 82.4449 62.9539 82.7961C62.3054 83.5889 61.5721 84.3222 60.7761 84.974C60.4259 85.2603 60.2872 85.7326 60.4259 86.1631L61.5952 89.7922C61.1669 90.0597 60.7155 90.3174 60.2432 90.5629L57.6799 87.7332C57.376 87.3974 56.8971 87.284 56.4732 87.4425C55.5241 87.8026 54.5277 88.069 53.5114 88.2342C53.0644 88.3069 52.7076 88.646 52.6118 89.0886L51.8037 92.8343C51.2851 92.8619 50.7577 92.863 50.2413 92.8343L49.432 89.0886C49.3362 88.646 48.9795 88.3069 48.5325 88.2342C47.5173 88.069 46.5209 87.8026 45.5696 87.4425C45.1479 87.2818 44.6678 87.3963 44.3639 87.7332L41.8007 90.5618C41.3284 90.3152 40.8758 90.0575 40.4475 89.7911L41.6168 86.162C41.7556 85.7304 41.6168 85.2592 41.2667 84.9718C40.4718 84.3222 39.7396 83.5889 39.0888 82.7939C38.8015 82.4427 38.328 82.304 37.8986 82.4438L34.2696 83.6131C34.002 83.1848 33.7444 82.7334 33.4989 82.2599L36.3285 79.6967C36.6644 79.3928 36.78 78.9139 36.6192 78.49C36.2592 77.5409 35.9927 76.5444 35.8276 75.5282C35.7549 75.0811 35.4158 74.7244 34.9732 74.6286L31.2252 73.8227C31.212 73.5639 31.2021 73.303 31.2021 73.0409C31.2021 72.7789 31.2109 72.5179 31.2252 72.2603Z" fill="#343D66"/>
<path d="M86.4953 44.6728C86.9093 44.5429 87.2087 44.1806 87.2583 43.749C87.3243 43.193 87.3552 42.6898 87.3552 42.212C87.3552 41.7341 87.3243 41.2309 87.2594 40.6749C87.2098 40.2433 86.9104 39.881 86.4964 39.7511L83.4432 38.7921C83.3518 38.5422 83.2505 38.2966 83.1393 38.0566L84.6191 35.2214C84.8195 34.8372 84.7754 34.3703 84.5068 34.029C83.8693 33.223 83.136 32.4898 82.3278 31.85C81.9865 31.5803 81.5197 31.5374 81.1354 31.7366L78.298 33.2164C78.058 33.1063 77.8124 33.005 77.5625 32.9137L76.6035 29.8605C76.4736 29.4465 76.1113 29.147 75.6797 29.0974C74.5655 28.9675 73.7188 28.9675 72.6045 29.0974C72.1729 29.147 71.8107 29.4465 71.6807 29.8605L70.7217 32.9137C70.4718 33.005 70.2263 33.1063 69.9862 33.2175L67.1511 31.7377C66.7668 31.5385 66.3011 31.5814 65.9586 31.85C65.1527 32.4875 64.4194 33.2208 63.7797 34.029C63.5099 34.3703 63.4659 34.8361 63.6663 35.2214L65.145 38.0566C65.0349 38.2966 64.9336 38.5422 64.8422 38.7921L61.789 39.7511C61.375 39.881 61.0755 40.2433 61.026 40.6749C60.961 41.2309 60.9302 41.7341 60.9302 42.212C60.9302 42.6898 60.961 43.193 61.026 43.749C61.0755 44.1806 61.375 44.5429 61.789 44.6728L64.8422 45.6318C64.9336 45.8817 65.0349 46.1273 65.1461 46.3673L63.6663 49.2025C63.4659 49.5867 63.5099 50.0536 63.7786 50.3949C64.4161 51.2009 65.1494 51.9341 65.9575 52.5739C66.2978 52.8436 66.7657 52.8865 67.15 52.6873L69.9851 51.2086C70.2252 51.3187 70.4707 51.42 70.7206 51.5113L71.6796 54.5645C71.8096 54.9785 72.1718 55.278 72.6034 55.3276C73.1616 55.3936 73.6648 55.4244 74.1427 55.4244C74.6205 55.4244 75.1237 55.3936 75.6797 55.3287C76.1113 55.2791 76.4736 54.9796 76.6035 54.5656L77.5625 51.5124C77.8124 51.4211 78.058 51.3198 78.298 51.2086L81.1332 52.6884C81.5175 52.8888 81.9843 52.8458 82.3256 52.5761C83.1316 51.9386 83.8649 51.2053 84.5046 50.3971C84.7743 50.0558 84.8184 49.59 84.618 49.2047L83.1382 46.3695C83.2494 46.1295 83.3507 45.8839 83.4421 45.634L86.4953 44.6728ZM82.2452 43.6995C81.8973 43.8096 81.6265 44.0837 81.5208 44.4339C81.371 44.9315 81.1728 45.4105 80.9328 45.8586C80.7599 46.1801 80.7566 46.5666 80.9262 46.8892L82.3234 49.5669C82.0625 49.8565 81.7861 50.1328 81.4976 50.3927L78.8199 48.9955C78.4962 48.8259 78.1097 48.8303 77.7893 49.0021C77.3412 49.2421 76.8623 49.4403 76.3646 49.59C76.0155 49.6946 75.7403 49.9666 75.6302 50.3145L74.7229 53.2036C74.321 53.2279 73.9654 53.2279 73.5624 53.2036L72.6552 50.3145C72.5451 49.9666 72.2709 49.6957 71.9208 49.59C71.422 49.4403 70.943 49.2421 70.4971 49.0021C70.1756 48.8292 69.7892 48.8259 69.4654 48.9955L66.7877 50.3927C66.4981 50.1317 66.2218 49.8554 65.9619 49.5669L67.3592 46.8892C67.5276 46.5666 67.5254 46.179 67.3526 45.8586C67.1125 45.4105 66.9143 44.9315 66.7646 44.4339C66.66 44.0848 66.388 43.8096 66.0401 43.6995L63.151 42.7922C63.1378 42.5907 63.1323 42.398 63.1323 42.212C63.1323 42.0259 63.1378 41.8332 63.151 41.6317L66.0401 40.7244C66.388 40.6143 66.6589 40.3402 66.7646 39.99C66.9143 39.4913 67.1125 39.0123 67.3526 38.5664C67.5254 38.2449 67.5287 37.8584 67.3592 37.5347L65.9619 34.857C66.2229 34.5674 66.4992 34.2911 66.7877 34.0312L69.4654 35.4284C69.7881 35.5969 70.1756 35.5936 70.496 35.4218C70.9441 35.1818 71.4231 34.9836 71.9208 34.8339C72.2698 34.7293 72.5451 34.4573 72.6552 34.1094L73.5624 31.2203C73.9643 31.196 74.3199 31.196 74.7229 31.2203L75.6302 34.1094C75.7403 34.4573 76.0144 34.7282 76.3646 34.8339C76.8634 34.9836 77.3423 35.1818 77.7882 35.4218C78.1097 35.5947 78.4962 35.598 78.8199 35.4284L81.4976 34.0312C81.7872 34.2922 82.0636 34.5685 82.3234 34.857L80.9262 37.5347C80.7577 37.8573 80.7599 38.2449 80.9328 38.5653C81.1728 39.0134 81.371 39.4924 81.5208 39.99C81.6254 40.3391 81.8973 40.6143 82.2452 40.7244L85.1344 41.6317C85.1476 41.8332 85.1531 42.0259 85.1531 42.212C85.1531 42.398 85.1476 42.5907 85.1344 42.7922L82.2452 43.6995Z" fill="#343D66"/>
<path d="M94.2499 65.294L92.3583 64.6224C92.2504 64.3152 92.1271 64.0146 91.9873 63.7228L92.8472 61.9116C93.0266 61.535 92.9771 61.0902 92.7194 60.7621C92.1689 60.0585 91.5325 59.421 90.8268 58.8683C90.4975 58.6107 90.0505 58.5622 89.6762 58.7406L87.8639 59.6005C87.5732 59.4618 87.2726 59.3374 86.9654 59.2306L86.2927 57.339C86.1528 56.9459 85.8016 56.6651 85.3876 56.6145C84.4066 56.4967 83.6964 56.4967 82.7154 56.6145C82.3014 56.664 81.9502 56.9448 81.8103 57.339L81.1387 59.2306C80.8315 59.3385 80.5309 59.4618 80.2391 59.6016L78.4279 58.7417C78.0536 58.5633 77.6076 58.6129 77.2784 58.8694C76.5749 59.4199 75.9374 60.0563 75.3846 60.7621C75.1281 61.0902 75.0786 61.5361 75.2569 61.9127L76.1168 63.725C75.9781 64.0157 75.8537 64.3163 75.7469 64.6235L73.8553 65.2962C73.4622 65.436 73.1815 65.7873 73.1308 66.2012C73.0703 66.689 73.0416 67.1261 73.0416 67.5357C73.0416 67.9453 73.0703 68.3813 73.1297 68.8713C73.1793 69.2853 73.46 69.6365 73.8542 69.7763L75.7458 70.448C75.8537 70.7552 75.977 71.0557 76.1168 71.3475L75.2569 73.1587C75.0775 73.5353 75.127 73.9801 75.3846 74.3082C75.9352 75.0118 76.5716 75.6493 77.2773 76.202C77.6054 76.4585 78.0525 76.5081 78.4279 76.3297L80.2402 75.4698C80.5309 75.6085 80.8315 75.733 81.1387 75.8398L81.8114 77.7313C81.9513 78.1244 82.3025 78.4052 82.7165 78.4558C83.2064 78.5175 83.6425 78.5461 84.052 78.5461C84.4616 78.5461 84.8976 78.5175 85.3876 78.458C85.8016 78.4085 86.1528 78.1277 86.2927 77.7335L86.9643 75.842C87.2715 75.7341 87.5721 75.6107 87.8639 75.4709L89.6751 76.3308C90.0505 76.5103 90.4975 76.4618 90.8246 76.2031C91.5281 75.6526 92.1656 75.0162 92.7183 74.3104C92.9749 73.9823 93.0244 73.5364 92.8461 73.1598L91.9862 71.3475C92.1249 71.0568 92.2493 70.7563 92.3561 70.4491L94.2477 69.7763C94.6408 69.6365 94.9215 69.2853 94.9722 68.8713C95.0338 68.3813 95.0625 67.9453 95.0625 67.5357C95.0625 67.1261 95.0338 66.6901 94.9744 66.2001C94.9248 65.7851 94.6441 65.4349 94.2499 65.294ZM92.8494 67.9376L91.1042 68.5575C90.7662 68.6775 90.5075 68.9549 90.4117 69.3007C90.2674 69.8237 90.0615 70.3224 89.8006 70.7838C89.6244 71.0954 89.6112 71.4741 89.7642 71.7978L90.5548 73.4637C90.372 73.6641 90.1804 73.8557 89.9811 74.0374L88.3153 73.2468C87.9938 73.0938 87.6139 73.107 87.3012 73.2831C86.8388 73.5452 86.34 73.75 85.8192 73.8942C85.4735 73.99 85.196 74.2488 85.0749 74.5868L84.455 76.3319C84.1886 76.3462 83.9177 76.3462 83.6513 76.3319L83.0314 74.5868C82.9114 74.2488 82.6339 73.99 82.2882 73.8942C81.7652 73.75 81.2664 73.5441 80.8051 73.2831C80.4935 73.1081 80.1158 73.0949 79.791 73.2468L78.1251 74.0374C77.9247 73.8546 77.7332 73.663 77.5515 73.4637L78.342 71.7978C78.4962 71.4741 78.4819 71.0954 78.3057 70.7838C78.0437 70.3213 77.8389 69.8226 77.6946 69.3018C77.5988 68.956 77.3401 68.6786 77.0021 68.5575L75.2569 67.9376C75.2481 67.8044 75.2437 67.6711 75.2437 67.5357C75.2437 67.4003 75.2481 67.266 75.2547 67.1338L76.9999 66.5128C77.3379 66.3928 77.5966 66.1154 77.6913 65.7696C77.8367 65.2455 78.0426 64.7479 78.3035 64.2865C78.4797 63.9749 78.4929 63.5962 78.3398 63.2725L77.5493 61.6066C77.7321 61.4062 77.9236 61.2146 78.1229 61.033L79.7888 61.8235C80.1125 61.9777 80.4913 61.9644 80.8029 61.7872C81.2653 61.5251 81.7641 61.3203 82.2849 61.1761C82.6306 61.0803 82.9081 60.8216 83.0292 60.4835L83.6491 58.7384C83.9155 58.7241 84.1864 58.7241 84.4528 58.7384L85.0727 60.4835C85.1927 60.8216 85.4702 61.0803 85.8159 61.1761C86.3389 61.3203 86.8377 61.5262 87.299 61.7872C87.6117 61.9644 87.9894 61.9777 88.3131 61.8235L89.9789 61.033C90.1793 61.2157 90.3709 61.4073 90.5526 61.6066L89.762 63.2725C89.6079 63.5962 89.6222 63.9749 89.7984 64.2865C90.0604 64.749 90.2652 65.2477 90.4095 65.7685C90.5052 66.1143 90.764 66.3917 91.102 66.5128L92.8472 67.1327C92.856 67.2671 92.8604 67.4003 92.8604 67.5357C92.8604 67.6711 92.856 67.8044 92.8494 67.9376Z" fill="#343D66"/>
<path d="M51.0209 85.1526C57.6987 85.1526 63.1323 79.719 63.1323 73.0411C63.1323 66.3633 57.6987 60.9297 51.0209 60.9297C44.3431 60.9297 38.9094 66.3633 38.9094 73.0411C38.9094 79.719 44.3431 85.1526 51.0209 85.1526ZM51.0209 63.1318C56.4843 63.1318 60.9303 67.5778 60.9303 73.0411C60.9303 78.5045 56.4843 82.9505 51.0209 82.9505C45.5575 82.9505 41.1115 78.5045 41.1115 73.0411C41.1115 67.5778 45.5575 63.1318 51.0209 63.1318Z" fill="#343D66"/>
<path d="M29.0239 54.719L30.7151 56.1294C35.7568 50.0836 43.1569 46.6164 51.0205 46.6164C51.581 46.6164 52.1403 46.6484 52.6996 46.6836L51.3431 48.0401L52.9 49.597L56.2031 46.2938C56.6336 45.8633 56.6336 45.1675 56.2031 44.737L52.9 41.4338L51.3431 42.9907L52.8395 44.487C52.2339 44.4485 51.6272 44.4144 51.0205 44.4144C42.5029 44.4144 34.4851 48.17 29.0239 54.719Z" fill="#343D66"/>
<path d="M74.1427 36.7068C71.1071 36.7068 68.6375 39.1764 68.6375 42.212C68.6375 45.2476 71.1071 47.7172 74.1427 47.7172C77.1782 47.7172 79.6479 45.2476 79.6479 42.212C79.6479 39.1764 77.1782 36.7068 74.1427 36.7068ZM74.1427 45.5151C72.3215 45.5151 70.8395 44.0331 70.8395 42.212C70.8395 40.3909 72.3215 38.9089 74.1427 38.9089C75.9638 38.9089 77.4458 40.3909 77.4458 42.212C77.4458 44.0331 75.9638 45.5151 74.1427 45.5151Z" fill="#343D66"/>
<path d="M84.0521 63.1318C81.6232 63.1318 79.6479 65.1071 79.6479 67.536C79.6479 69.9649 81.6232 71.9402 84.0521 71.9402C86.481 71.9402 88.4563 69.9649 88.4563 67.536C88.4563 65.1071 86.481 63.1318 84.0521 63.1318ZM84.0521 69.7381C82.8377 69.7381 81.85 68.7505 81.85 67.536C81.85 66.3216 82.8377 65.3339 84.0521 65.3339C85.2666 65.3339 86.2542 66.3216 86.2542 67.536C86.2542 68.7505 85.2666 69.7381 84.0521 69.7381Z" fill="#343D66"/>
<path d="M94.1772 32.3248L88.672 31.2238C88.073 31.1027 87.495 31.4913 87.3761 32.087L86.275 37.5922L88.4342 38.0249L89.0276 35.0609C90.0945 37.2806 90.6583 39.7271 90.6583 42.2122C90.6583 46.0086 89.4053 49.5781 87.0358 52.5344L88.7546 53.9118C91.4026 50.6076 92.8604 46.4534 92.8604 42.2122C92.8604 39.3285 92.1942 36.4857 90.9269 33.9202L93.7456 34.484L94.1772 32.3248Z" fill="#343D66"/>
</svg>
