<svg width="125" height="125" viewBox="0 0 125 125" fill="none" xmlns="http://www.w3.org/2000/svg">
<path d="M78.3509 54.7879L71.9789 67.0257C71.4637 68.0127 70.9214 69.0278 70.4062 70.0993C70.0808 70.7761 70.352 71.5938 71.0027 71.904C71.1925 71.9886 71.3823 72.045 71.5721 72.045C72.0602 72.045 72.5212 71.763 72.7381 71.2836C73.1991 70.2967 73.7414 69.2816 74.2565 68.3228L80.6557 56.085C80.71 55.9722 80.8184 55.7748 80.7913 55.7466C80.8455 55.803 80.9269 55.9722 81.0082 56.085L81.7675 57.5231C84.0994 62.0065 86.5397 66.631 88.9259 71.199C89.2784 71.8476 90.0647 72.1013 90.6884 71.7348C91.312 71.3682 91.5561 70.5505 91.2036 69.9019C88.8174 65.3621 86.4042 60.7094 84.0451 56.226L83.2859 54.7879C83.0148 54.2803 82.3911 53.096 80.8455 53.0678C79.2729 53.0396 78.6221 54.3085 78.3509 54.7879Z" fill="#343D66"/>
<path d="M92.8032 74.3849L92.3693 74.3567C92.3422 74.3567 92.3151 74.3567 92.2608 74.3567C92.2066 74.3567 92.1524 74.3567 92.1253 74.3567C92.071 74.3567 91.9626 74.3285 91.9083 74.3285C91.6643 74.3003 91.4474 74.3003 91.2034 74.3003H70.3789C70.1348 74.3003 69.9179 74.3285 69.5925 74.3285C69.5383 74.3285 69.5383 74.3285 69.4841 74.3285C69.4298 74.3285 69.3756 74.3285 69.24 74.3285L68.8062 74.3567C68.4537 74.3849 68.1283 74.5541 67.9114 74.836C67.6944 75.118 67.586 75.4564 67.6131 75.823L67.6402 76.2459C67.83 79.2913 69.0773 81.7445 71.4906 83.7747C74.0123 85.8614 77.3204 87.0175 80.8182 87.0175C84.3161 87.0175 87.6241 85.8614 90.1459 83.7747C92.532 81.7445 93.7793 79.2913 93.9691 76.2741L93.9962 75.823C94.0505 75.0898 93.5081 74.4413 92.8032 74.3849ZM88.5189 81.6599C86.4582 83.38 83.7196 84.3105 80.8182 84.3105C77.9169 84.3105 75.1783 83.38 73.1175 81.6599C71.5448 80.3346 70.65 78.8401 70.3517 76.9791C70.3789 76.9791 70.3789 76.9791 70.406 76.9791H91.2305C91.2576 76.9791 91.2576 76.9791 91.2847 76.9791C90.9593 78.8401 90.0645 80.3346 88.5189 81.6599Z" fill="#343D66"/>
<path d="M50.3409 44.4393C54.7064 44.4393 58.2314 40.7454 58.2314 36.2338C58.2314 31.7221 54.6793 28 50.3409 28C46.0024 28 42.4232 31.6939 42.4232 36.2338C42.4232 40.7736 45.9753 44.4393 50.3409 44.4393ZM50.3409 30.707C53.2693 30.707 55.6283 33.1884 55.6283 36.2056C55.6283 39.2227 53.2422 41.7041 50.3409 41.7041C47.4395 41.7041 45.0534 39.2227 45.0534 36.2056C45.0534 33.1884 47.4124 30.707 50.3409 30.707Z" fill="#343D66"/>
<path d="M59.9395 54.7595C59.2074 54.7031 58.6108 55.267 58.5566 56.0284L57.3364 74.6389C57.3364 74.6953 57.3364 74.7235 57.3093 74.7799L56.1705 92.8828C56.1162 93.7006 55.4655 94.3491 54.6791 94.3491H46.0023C45.2159 94.3491 44.5651 93.7006 44.5109 92.8828L43.3721 74.7799C43.345 74.2159 42.9653 73.7366 42.4502 73.5674C40.769 73.0316 40.769 73.0316 40.6334 71.1142L39.6031 51.9397V51.7141H39.6302C41.6367 51.0937 43.6432 50.417 45.704 49.7403C46.5717 50.8118 47.4936 51.8833 48.4155 52.983L49.3374 54.0827C49.5815 54.3647 49.934 54.5339 50.3136 54.5339C50.6932 54.5339 51.0457 54.3647 51.2897 54.0827L52.3743 52.8138C53.242 51.7705 54.0826 50.7836 54.9232 49.7685C54.9774 49.7685 55.0045 49.7685 55.0587 49.7685L68.4808 52.842C68.6706 52.8984 68.8604 52.8984 69.0231 52.842L81.0622 50.276C81.7672 50.135 82.2282 49.4019 82.0655 48.6687C81.9299 47.9356 81.2249 47.4562 80.5199 47.6254L68.7519 50.135L55.5197 47.0333C55.4655 47.0333 55.4112 47.0051 55.357 47.0051C55.113 46.9769 53.8114 46.9205 53.0522 47.851C52.2116 48.8943 51.344 49.9094 50.4492 50.981L50.3407 51.0937C49.3917 49.994 48.4969 48.9225 47.6292 47.851C46.9242 47.0051 46.0294 46.7231 45.0261 47.0615C42.9925 47.7382 40.9317 48.415 38.871 49.0635C37.6779 49.4583 37 50.417 37 51.6859C37 51.7987 37 51.9961 37 52.0243L38.0033 70.945L38.0304 71.2552C38.2202 74.1313 38.6811 75.0055 40.8232 75.8232L41.9079 92.9956C42.0434 95.2233 43.8602 96.9997 46.0023 96.9997H54.652C56.7941 96.9997 58.6108 95.2515 58.7464 92.9956L59.8852 75.0337C59.8852 74.9773 59.8852 74.9491 59.9124 74.8927L61.1597 56.1411C61.1868 55.4362 60.6445 54.7877 59.9395 54.7595Z" fill="#343D66"/>
<circle cx="62.5" cy="62.5" r="61" stroke="#AAB4C1" stroke-width="3"/>
</svg>
